# xmcd CD database file
#
# Track frame offsets:
#	150
#	18050
#	29077
#	49275
#	64897
#	76015
#	92365
#	109012
#	121765
#	131207
#	145960
#	154905
#	168040
#	177040
#	194190
#	208647
#	226812
#	244117
#	258660
#	263165
#	276395
#	288457
#	300882
#	315037
#
# Disc length: 4425 seconds
#
# Revision: 0
# Processed by: cddbd v1.5.2PL0 Copyright (c) Steve Scherf et al.
# Submitted via: CDex 1.51
#
DISCID=49114718
DTITLE=Various Artist - Country and Western The Best Tracks Of The Midnight Special
DYEAR=1999
DGENRE=Country
TTITLE0=East Wind - E. Brodie
TTITLE1=Slowly - W. Pierce T.Hill
TTITLE2=Lonesome Me - Don Gibson
TTITLE3=When My Blue Moon Turns To Gold - G. Sullivan W. Walker
TTITLE4=Honky Tonk Blues - Hank Williams
TTITLE5=I Fall To Pieces - H.Cochran H. Howard
TTITLE6=Rain - E. Brodie
TTITLE7=Why - E. Brodie
TTITLE8=Fast Locomotive - Floegel
TTITLE9=A Fool Such As I - B. Trader
TTITLE10=Hey Good Looking - Hank Williams
TTITLE11=Together Again - Buck Owens
TTITLE12=Guitar Boogie - Arthur Smith
TTITLE13=Sliver Wings - Merle Haggard
TTITLE14=After Sweet Memories - K. Robbins
TTITLE15=Help Me Make It Through The Night - K. Kristofferson
TTITLE16=My Shoes Keep Walking Back To You - R. Wills
TTITLE17=Proud Mary - J.C. Fogerty
TTITLE18=Midnight Special Express - D. Berkelie
TTITLE19=I Love You In Thousand Ways -  L.Fritsel
TTITLE20=I'm Ready If You're Willin' - J. Hortion
TTITLE21=Tennessee Waltz - P.King R.Steward
TTITLE22=Excuse Me - B. Owens
TTITLE23=I'm Walking Behind You - W. Pierce
EXTD=YEAR: 1999
EXTT0=
EXTT1=
EXTT2=
EXTT3=
EXTT4=
EXTT5=
EXTT6=
EXTT7=
EXTT8=
EXTT9=
EXTT10=
EXTT11=
EXTT12=
EXTT13=
EXTT14=
EXTT15=
EXTT16=
EXTT17=
EXTT18=
EXTT19=
EXTT20=
EXTT21=
EXTT22=
EXTT23=
PLAYORDER=
